# xmcd CD database file
#
# Track frame offsets:
#	150
#	10122
#	28492
#	44104
#	79313
#	97288
#	110241
#	127666
#	141166
#	164443
#	180205
#
# Disc length: 2583 seconds
#
# Revision: 0
# Processed by: cddbd v1.5.1PL2 Copyright (c) Steve Scherf et al.
# Submitted via: CDex 1.70beta1
#
DISCID=990a150b
DTITLE=Ivan Zar - Afrika Tide
DYEAR=1998
DGENRE=Blues
TTITLE0=Bag Of Tricks
TTITLE1=Riding In The Moonlight
TTITLE2=Go Go the Rhumba
TTITLE3=Burnin' Love
TTITLE4=2000 Miles Of Red Sand
TTITLE5=Man Goin' Round (Taking Names)
TTITLE6=Afrika Tide
TTITLE7=Now's The Time
TTITLE8=Hands Out Of My Pocket
TTITLE9=Cigarette Blues
TTITLE10=Pick A Bale Of Cotton
EXTD=YEAR: 1998
EXTT0=
EXTT1=
EXTT2=
EXTT3=
EXTT4=
EXTT5=
EXTT6=
EXTT7=
EXTT8=
EXTT9=
EXTT10=
PLAYORDER=
